<?xml version="1.0" encoding="utf-8"?>
<!-- Generator: Adobe Illustrator 22.1.0, SVG Export Plug-In . SVG Version: 6.00 Build 0)  -->
<svg version="1.1" xmlns="http://www.w3.org/2000/svg" xmlns:xlink="http://www.w3.org/1999/xlink" x="0px" y="0px"
	 viewBox="0 0 364.8 244.4" style="enable-background:new 0 0 364.8 244.4;" xml:space="preserve">
<style type="text/css">
	.st0{fill:url(#SVGID_1_);}
	.st1{fill:#D1D7DF;}
	.st2{fill:#A4B0C1;}
	.st3{fill:#547DBF;}
	.st4{fill:#F2F2F2;}
	.st5{fill:#8ED6E8;}
	.st6{fill:#474C54;}
</style>
<g id="Layer_2">
	<linearGradient id="SVGID_1_" gradientUnits="userSpaceOnUse" x1="3.8809" y1="121.6869" x2="361.2676" y2="121.6869">
		<stop  offset="0" style="stop-color:#125583"/>
		<stop  offset="1" style="stop-color:#008CCE"/>
	</linearGradient>
	<path class="st0" d="M346.6,179c-20.4,22.3-43.1,3.7-90.1,25.6c-32.9,15.4-36.8,31.5-60.6,31.9c-24.1,0.5-27.4-15.9-54.5-21.5
		c-44.2-9.2-63.3,28.7-95.2,17.7c-28.4-9.8-48.5-51.9-40.7-86.8c6.6-29.6,31.6-46.4,34-48C55.2,87.7,82.4,78.9,86,77.8
		c12.1-3.8,17.8-4.7,25-10.4c11.6-9.3,10.9-19,18-30.3c13.2-21.2,44.1-33.2,67.9-29.7c22.1,3.3,22.7,17.8,48.5,21.8
		c23.2,3.6,28.2-7.2,44.4-1.4c12.4,4.5,13.2,12.2,39.5,46.4c21.6,28.1,24.1,26.8,27.7,36.7C364.2,130.8,363.2,160.8,346.6,179z"/>
</g>
<g id="PC">
	<g>
		<g>
			<g>
				<polygon class="st1" points="227.4,210.1 227.4,227.1 133.8,227.1 133.8,210.1 146.5,210.1 214.6,210.1 				"/>
				<polygon class="st2" points="206.1,184.6 214.6,210.1 146.5,210.1 155,184.6 172.1,184.6 				"/>
				<path class="st3" d="M278.5,44.1v106.4H82.7V44.1c0-7.1,5.7-12.8,12.8-12.8h170.3C272.8,31.3,278.5,37,278.5,44.1z"/>
				<path class="st1" d="M278.5,150.5v21.3c0,7.1-5.7,12.8-12.8,12.8h-59.6h-34.1h-17H95.4c-7.1,0-12.8-5.7-12.8-12.8v-21.3H278.5z"
					/>
			</g>
			<g>
				<rect x="116.7" y="65.4" class="st4" width="127.7" height="68.1"/>
				<path class="st5" d="M244.4,39.8v25.5H116.7V39.8c0-4.7,3.8-8.5,8.5-8.5h110.7C240.6,31.3,244.4,35.1,244.4,39.8z"/>
			</g>
		</g>
		<g>
			<path class="st6" d="M104,154.8h153.3c2.4,0,4.3-1.9,4.3-4.3s-1.9-4.3-4.3-4.3H104c-2.4,0-4.3,1.9-4.3,4.3S101.6,154.8,104,154.8
				z"/>
			<path class="st6" d="M265.7,27.1c-2.4,0-4.3,1.9-4.3,4.3c0,2.4,1.9,4.3,4.3,4.3c4.7,0,8.5,3.8,8.5,8.5v127.7
				c0,4.7-3.8,8.5-8.5,8.5h-93.7c-2.4,0-4.3,1.9-4.3,4.3s1.9,4.3,4.3,4.3h31l7.5,22.6c0.6,1.7,2.2,2.9,4,2.9h8.5v8.5H138v-8.5h8.5
				c1.8,0,3.5-1.2,4-2.9l8.5-25.5c0.4-1.3,0.2-2.7-0.6-3.8c-0.8-1.1-2.1-1.8-3.5-1.8H95.4c-4.7,0-8.5-3.8-8.5-8.5V44.1
				c0-4.7,3.8-8.5,8.5-8.5c2.4,0,4.3-1.9,4.3-4.3c0-2.4-1.9-4.3-4.3-4.3c-9.4,0-17,7.6-17,17v127.7c0,9.4,7.6,17,17,17h53.7l-5.7,17
				h-9.7c-2.4,0-4.3,1.9-4.3,4.3v12.8h-4.3c-2.4,0-4.3,1.9-4.3,4.3s1.9,4.3,4.3,4.3h110.7c2.4,0,4.3-1.9,4.3-4.3s-1.9-4.3-4.3-4.3
				h-4.3v-12.8c0-2.4-1.9-4.3-4.3-4.3h-9.7l-5.7-17h53.7c9.4,0,17-7.6,17-17V44.1C282.8,34.7,275.1,27.1,265.7,27.1z"/>
			<path class="st6" d="M163.6,214.4h34.1c2.4,0,4.3-1.9,4.3-4.3s-1.9-4.3-4.3-4.3h-34.1c-2.4,0-4.3,1.9-4.3,4.3
				S161.2,214.4,163.6,214.4z"/>
			<path class="st6" d="M116.7,137.7c2.4,0,4.3-1.9,4.3-4.3V39.8c0-2.3,1.9-4.3,4.3-4.3h110.7c2.3,0,4.3,1.9,4.3,4.3v93.7
				c0,2.4,1.9,4.3,4.3,4.3c2.4,0,4.3-1.9,4.3-4.3V39.8c0-7-5.7-12.8-12.8-12.8H125.2c-7,0-12.8,5.7-12.8,12.8v93.7
				C112.5,135.8,114.4,137.7,116.7,137.7z"/>
			<path class="st6" d="M133.8,52.6h4.3c2.4,0,4.3-1.9,4.3-4.3c0-2.4-1.9-4.3-4.3-4.3h-4.3c-2.4,0-4.3,1.9-4.3,4.3
				C129.5,50.7,131.4,52.6,133.8,52.6z"/>
			<path class="st6" d="M159.3,52.6c2.4,0,4.3-1.9,4.3-4.3c0-2.4-1.9-4.3-4.3-4.3H155c-2.4,0-4.3,1.9-4.3,4.3c0,2.4,1.9,4.3,4.3,4.3
				H159.3z"/>
			<path class="st6" d="M227.4,44.1h-4.3c-2.4,0-4.3,1.9-4.3,4.3c0,2.4,1.9,4.3,4.3,4.3h4.3c2.4,0,4.3-1.9,4.3-4.3
				C231.7,46,229.8,44.1,227.4,44.1z"/>
			<path class="st6" d="M231.7,65.4c0-2.4-1.9-4.3-4.3-4.3h-93.7c-2.4,0-4.3,1.9-4.3,4.3c0,2.4,1.9,4.3,4.3,4.3h93.7
				C229.8,69.6,231.7,67.7,231.7,65.4z"/>
			<path class="st6" d="M170.8,92.2c-1.7-1.7-4.4-1.7-6,0L152,104.9c-1.7,1.7-1.7,4.4,0,6l12.8,12.8c0.8,0.8,1.9,1.2,3,1.2
				c1.1,0,2.2-0.4,3-1.2c1.7-1.7,1.7-4.4,0-6l-9.8-9.8l9.8-9.8C172.5,96.5,172.5,93.8,170.8,92.2z"/>
			<path class="st6" d="M190.4,123.7c0.8,0.8,1.9,1.2,3,1.2s2.2-0.4,3-1.2l12.8-12.8c1.7-1.7,1.7-4.4,0-6l-12.8-12.8
				c-1.7-1.7-4.4-1.7-6,0s-1.7,4.4,0,6l9.8,9.8l-9.8,9.8C188.7,119.4,188.7,122.1,190.4,123.7z"/>
		</g>
	</g>
</g>
</svg>
