<?xml version="1.0" encoding="utf-8"?>
<!-- Generator: Adobe Illustrator 22.1.0, SVG Export Plug-In . SVG Version: 6.00 Build 0)  -->
<svg version="1.1" id="Layer_2" xmlns="http://www.w3.org/2000/svg" xmlns:xlink="http://www.w3.org/1999/xlink" x="0px" y="0px"
	 viewBox="0 0 50 48" style="enable-background:new 0 0 50 48;" xml:space="preserve">
<style type="text/css">
	.st0{fill:#0F3785;}
</style>
<path class="st0" d="M8.4,26.5c-0.9,0.3-1.6,1-1.9,1.9L1,44.9l0.4,0.4l8.7-8.7c-0.1-0.2-0.1-0.5-0.1-0.7c0-1.7,1.3-3,3-3s3,1.3,3,3
	s-1.3,3-3,3c-0.3,0-0.5-0.1-0.7-0.1l-8.7,8.7L4,47.9l16.5-5.5c0.9-0.3,1.6-1,1.9-1.9l3.1-7.9l-9.2-9.2L8.4,26.5z M35.5,2.6
	L18.4,21.3l9.1,9.1l18.7-17.1C54.1,6.3,42.5-5.2,35.5,2.6z"/>
</svg>
